<svg width="553" height="369" viewBox="0 0 553 369" fill="none" xmlns="http://www.w3.org/2000/svg">
<path d="M384.609 196.017C350.037 205.591 284.729 272.379 325.21 303.703C365.691 335.027 486.661 167.726 384.609 196.017Z" fill="#ECF2FA"/>
<path d="M184.159 33.2L183.656 33.0994L185.18 25.9117C182.832 24.6491 180.701 23.0184 178.869 21.0816L179.272 20.7222C181.1 22.6648 183.238 24.292 185.597 25.5379L185.784 25.6242L184.159 33.2Z" fill="#101C3A"/>
<path d="M219.981 25.7539C240.639 51.2272 256.38 48.4671 243.672 76.7867C230.964 105.106 277.972 90.3858 275.384 119.022C272.797 147.658 250.587 145.602 270.928 169.422C291.269 193.242 248.33 236.756 248.33 236.756H120.633C120.633 236.756 74.7033 215.093 87.4112 178.924C100.119 142.756 78.0097 142.396 108.629 117.11C128.194 100.995 110.211 91.234 110.211 67.6583C110.211 41.61 136.086 29.4052 147.975 31.9209C159.863 34.4366 185.567 -16.6824 219.981 25.7539Z" fill="#101C3A"/>
<path d="M234.386 265.938C234.386 265.938 242.465 314.973 258.134 334.48L103.871 336.148C103.871 336.148 125.147 293.252 125.88 268.454L234.386 265.938Z" fill="#364AC0"/>
<path d="M103.139 336.608L103.455 335.947C103.671 335.515 124.716 292.82 125.421 268.382V267.951H125.852L234.775 265.493L234.846 265.866C234.846 266.355 243.083 315.016 258.494 334.193L259.083 334.912H258.149L103.139 336.608ZM126.312 268.885C125.435 291.886 107.25 330.211 104.591 335.688L257.215 334.035C242.738 315.232 234.774 270.998 233.998 266.355L126.312 268.885Z" fill="#101C3A"/>
<path d="M208.482 150.274C200.719 156.901 193.79 180.39 211.702 197.713C229.614 215.035 279.741 246.848 297.581 251.836C323.356 259.024 364.269 238.783 347.148 199.74C336.107 174.568 273.574 153.552 251.235 146.033C228.895 138.515 218.459 141.764 208.482 150.274Z" fill="#5970FF"/>
<path d="M285.347 201.666L286.972 201.048C283.45 191.761 272.812 181.109 272.352 180.664L271.13 181.9C271.245 182.058 281.955 192.768 285.347 201.666Z" fill="#101C3A"/>
<path d="M149.442 173.332C149.83 163.7 137.941 143.877 114.524 145.17C91.1062 146.464 33.1588 148.908 18.2947 158.108C-3.26849 171.348 -11.6206 224.523 26.3736 237.676C50.8119 246.158 105.439 216.329 124.989 205.677C144.54 195.025 148.939 185.68 149.442 173.332Z" fill="#5970FF"/>
<path d="M79.1895 174.008C87.4659 173.046 95.6095 171.166 103.47 168.401L102.909 166.849C102.708 166.921 82.4815 174.194 69.3423 172.297L69.1123 173.921C72.4567 174.34 75.8384 174.369 79.1895 174.008Z" fill="#364AC0"/>
<path d="M256.941 233.766C260.017 224.738 258.724 199.035 256.941 186.773C255.504 172.556 257.099 150.734 242.911 143.215C236.514 139.823 208.683 138.227 196.219 134.691H164.55C154.746 137.192 130.897 141.993 121.826 146.665C115.746 149.799 110.743 152.171 107.278 162.565C103.483 182.331 102.707 197.799 99.4582 217.623C97.5894 228.246 99.3 236.67 105.769 252.124C115.127 278.445 92.3711 319.803 92.3711 319.803C92.3711 319.803 187.177 357.424 268.47 319.056C268.47 319.07 244.722 269.676 256.941 233.766Z" fill="#5970FF"/>
<path d="M98.8984 307.541L97.6621 307.023C103.096 294.086 111.319 269.647 105.137 252.397C98.4959 236.584 96.9577 228.045 98.7978 217.551C100.235 208.926 101.256 200.3 102.248 191.876C103.24 183.452 104.26 175.028 105.655 166.489L106.977 166.705C105.54 175.215 104.562 183.769 103.57 192.034C102.579 200.3 101.543 209.041 100.12 217.781C98.3234 227.987 99.8472 236.282 106.388 251.922C112.411 268.799 105.626 291.484 98.8984 307.541Z" fill="#364AC0"/>
<path d="M257.775 291.196C253.534 275.383 249.826 252.584 256.338 233.551C259.213 225.127 258.25 201.148 256.481 187.808L257.804 187.635C259.587 201.105 260.55 225.357 257.603 233.982C251.234 252.67 254.9 275.239 259.04 290.837L257.775 291.196Z" fill="#101C3A"/>
<path d="M196.377 107.521V135.122C209.545 169.206 180.147 211.729 180.147 211.729C180.147 211.729 152.575 165.727 165.082 135.007V95.2878C175.255 99.9972 185.706 104.083 196.377 107.521Z" fill="#FFAE99"/>
<path d="M137.451 141.16L137.106 139.622C138.055 139.406 160.337 134.245 165.038 134.245V135.812C160.524 135.812 137.696 141.102 137.451 141.16Z" fill="#101C3A"/>
<path d="M219.694 139.506C205.074 137.321 196.19 135.481 196.104 135.453L196.42 133.929C196.506 133.929 205.361 135.783 219.924 137.954L219.694 139.506Z" fill="#364AC0"/>
<path d="M311.425 99.6004C311.425 105.164 314.443 106.012 314.17 119.999C316.269 143.805 294.246 208.969 294.893 217.982C296.977 246.934 343.539 247.365 349.146 219.908C353.617 198.043 341.441 142.367 334.037 121.307C330.17 110.368 343.295 108.829 346.731 103.194C350.166 97.5591 311.41 95.9346 311.425 99.6004Z" fill="#FFAE99"/>
<path d="M193.086 118.49C195.214 116.42 197.399 108.226 199.727 107.449V100.477C188.083 96.8803 176.663 92.5936 165.528 87.6399V111.388C167.138 112.668 169.841 119.798 173.205 122.227C178.869 126.353 186.272 125.16 193.086 118.49Z" fill="#101C3A"/>
<path d="M206.828 74.4577C205.721 65.9187 205.276 60.0823 191.547 55.3671C176.87 50.3932 163.903 56.8047 158.929 71.4389C157.219 76.499 160.367 99.2841 162.322 106.386C163.659 111.273 178.882 119.841 178.882 119.841C179.716 121.063 185.869 121.034 186.717 119.755C186.717 119.755 201.509 109.778 202.731 106.486C205.304 99.6003 207.159 76.9878 206.828 74.4577Z" fill="#FFAE99"/>
<path d="M180.895 97.4154L180.263 96.1504C180.263 96.1504 184.087 94.1953 183.282 92.4127C180.866 87.0651 181.844 79.8055 181.844 79.4749L183.282 79.6761C183.282 79.748 182.318 86.8638 184.561 91.809C185.898 94.8709 181.096 97.3148 180.895 97.4154Z" fill="#101C3A"/>
<path d="M164.335 77.5771L163.544 76.3983C170.631 71.6257 175.892 75.9958 175.936 76.039L175.03 77.1171C174.771 76.959 170.43 73.4226 164.335 77.5771Z" fill="#101C3A"/>
<path d="M199.166 77.9224C199.008 77.7356 195.242 73.6098 188.529 76.7724L187.925 75.5074C195.63 71.8417 200.187 76.9449 200.23 76.9449L199.166 77.9224Z" fill="#101C3A"/>
<path d="M179.874 104.545C177.663 104.588 175.458 104.297 173.333 103.683L173.779 102.346C175.761 102.904 177.814 103.171 179.874 103.137C183.554 103.137 190.555 100.937 190.627 100.923L191.058 102.26C190.756 102.36 183.77 104.545 179.874 104.545Z" fill="#101C3A"/>
<path d="M170.4 52.6648C170.4 52.6648 193.99 71.7554 210.522 76.1111C210.522 76.1111 214.648 39.1375 170.4 52.6648Z" fill="#101C3A"/>
<path d="M167.067 82.9968C167.065 83.6513 167.256 84.292 167.618 84.8376C167.979 85.3832 168.495 85.8093 169.099 86.0617C169.702 86.3142 170.368 86.3817 171.01 86.2557C171.652 86.1298 172.243 85.816 172.707 85.3542C173.17 84.8924 173.487 84.3033 173.615 83.6615C173.744 83.0198 173.68 82.3542 173.43 81.7492C173.18 81.1442 172.756 80.627 172.212 80.2631C171.668 79.8991 171.028 79.7048 170.374 79.7048C169.499 79.7048 168.661 80.0512 168.041 80.6681C167.421 81.2851 167.071 82.1224 167.067 82.9968Z" fill="#101C3A"/>
<path d="M190.024 82.9968C190.022 83.652 190.213 84.2932 190.576 84.8391C190.938 85.3851 191.454 85.8111 192.059 86.0631C192.664 86.3151 193.33 86.3818 193.972 86.2547C194.615 86.1276 195.205 85.8124 195.669 85.3491C196.132 84.8858 196.447 84.2954 196.574 83.6527C196.701 83.01 196.635 82.344 196.383 81.7393C196.131 81.1345 195.705 80.6183 195.159 80.2561C194.613 79.8939 193.972 79.702 193.316 79.7049C192.445 79.7086 191.609 80.0567 190.993 80.6732C190.376 81.2898 190.028 82.1249 190.024 82.9968Z" fill="#101C3A"/>
<path d="M120.935 90.6732C120.935 90.6732 112.511 111.331 110.153 114.22C106.646 118.533 103.785 117.325 95.2174 128.394C78.6569 145.645 54.9662 210.191 48.7848 216.803C29.0042 238.036 -7.53817 209.184 5.31346 184.272C15.5631 164.434 59.9401 128.711 78.93 116.952C88.806 110.856 83.3433 107.766 84.1915 101.225C85.0396 94.684 122.099 83.1118 120.935 90.6732Z" fill="#FFAE99"/>
<path d="M103.082 117.44C103.082 117.44 107.596 121.494 113.447 117.225C119.298 112.955 121.928 111.475 126.385 110.77C130.841 110.066 126.988 102.792 116.437 106.314C105.885 109.836 102.435 108.945 103.082 117.44Z" fill="#FFAE99"/>
<path d="M116.235 106.788C115.846 106.995 115.5 107.273 115.214 107.607C114.919 107.941 114.699 108.333 114.567 108.758C114.508 108.974 114.469 109.195 114.452 109.419C114.459 109.642 114.488 109.863 114.538 110.08C114.589 110.295 114.666 110.503 114.768 110.698C114.817 110.799 114.875 110.895 114.941 110.986L115.128 111.244C115.056 111.043 114.941 110.856 114.883 110.655C114.755 110.261 114.691 109.848 114.697 109.433C114.713 109.228 114.752 109.026 114.812 108.829C114.934 108.431 115.124 108.057 115.372 107.722C115.625 107.381 115.914 107.067 116.235 106.788Z" fill="#D17F80"/>
<path d="M82.3949 117.857L86.2188 116.42L83.5306 109.807L79.7067 111.245C79.2715 111.413 78.8742 111.666 78.5379 111.989C78.2017 112.312 77.9334 112.7 77.7487 113.128C77.5639 113.556 77.4665 114.017 77.4621 114.484C77.4577 114.95 77.5463 115.413 77.7229 115.845C78.084 116.724 78.7753 117.428 79.6485 117.804C80.5218 118.18 81.5077 118.199 82.3949 117.857Z" fill="#390D9F"/>
<path d="M77.5931 112.811C78.0081 112.028 78.6922 111.42 79.5194 111.101L83.5445 109.534L86.4196 116.549L82.3945 118.116C81.4536 118.478 80.4086 118.458 79.4822 118.06C78.5558 117.663 77.8212 116.919 77.435 115.988C77.2452 115.533 77.1475 115.044 77.1475 114.551C77.1475 114.057 77.2452 113.569 77.435 113.113C77.4724 113.005 77.5257 112.904 77.5931 112.811ZM83.3433 110.051L79.735 111.489C79.3241 111.642 78.9484 111.877 78.6308 112.18C78.3131 112.482 78.06 112.846 77.8867 113.249C77.7135 113.652 77.6236 114.086 77.6225 114.525C77.6215 114.963 77.7093 115.398 77.8806 115.801C78.2195 116.627 78.8677 117.288 79.6868 117.642C80.5059 117.997 81.4312 118.017 82.2651 117.699L85.8733 116.261L83.3433 110.051Z" fill="#101C3A"/>
<path d="M134.435 90.9607L127.908 93.4908L129.892 98.364L136.332 95.8627L134.435 90.9607Z" fill="#390D9F"/>
<path d="M127.619 93.3616L134.562 90.6733L136.618 95.9923L129.833 98.6517L127.619 93.3616ZM134.304 91.234L128.194 93.6059L130.02 98.0767L136.058 95.7335L134.304 91.234Z" fill="#101C3A"/>
<g style="mix-blend-mode:screen" opacity="0.3">
<path d="M169.683 106.371C163.589 108.717 156.818 108.583 150.821 105.998C144.824 103.413 140.077 98.5833 137.597 92.5422C136.374 89.5762 135.756 86.3953 135.78 83.1869C135.804 79.9784 136.47 76.8073 137.739 73.8602C139.008 70.9131 140.853 68.2496 143.167 66.0266C145.48 63.8036 148.215 62.0661 151.211 60.9163C157.306 58.5709 164.076 58.7049 170.073 61.2896C176.07 63.8744 180.817 68.7044 183.297 74.7454C184.521 77.7114 185.139 80.8923 185.114 84.1008C185.09 87.3092 184.424 90.4804 183.155 93.4275C181.887 96.3746 180.041 99.0381 177.728 101.261C175.414 103.484 172.679 105.222 169.683 106.371Z" fill="#364AC0"/>
</g>
<path d="M132.479 89.3647L130.481 90.1554C130.333 90.2093 130.198 90.2925 130.084 90.4C129.97 90.5074 129.878 90.6368 129.815 90.7805C129.752 90.9242 129.719 91.0791 129.717 91.236C129.715 91.3929 129.745 91.5485 129.805 91.6936L132.536 98.3925C132.655 98.6897 132.886 98.9278 133.18 99.0545C133.474 99.1812 133.806 99.1861 134.103 99.0682L136.116 98.2919L132.479 89.3647Z" fill="#390D9F"/>
<path d="M129.647 90.6012C129.809 90.2986 130.074 90.064 130.394 89.9399L132.594 89.0918L136.403 98.4214L134.189 99.284C134.014 99.354 133.826 99.3887 133.637 99.3861C133.448 99.3836 133.262 99.3438 133.088 99.269C132.915 99.1942 132.757 99.0859 132.626 98.9504C132.494 98.8148 132.39 98.6546 132.321 98.479L129.604 91.78C129.529 91.6101 129.49 91.4265 129.49 91.2409C129.49 91.0553 129.529 90.8717 129.604 90.7018C129.611 90.6657 129.626 90.6315 129.647 90.6012ZM132.364 89.6524L130.553 90.3568C130.313 90.4528 130.121 90.6397 130.019 90.8767C129.916 91.1137 129.912 91.3816 130.006 91.6219L132.738 98.3065C132.837 98.5508 133.028 98.7464 133.27 98.8513C133.512 98.9561 133.785 98.9618 134.031 98.8671L135.828 98.1627L132.364 89.6524Z" fill="#101C3A"/>
<path d="M125.133 91.6649L84.1195 107.607C83.4672 107.857 82.8716 108.236 82.3679 108.72C81.8642 109.204 81.4624 109.784 81.1864 110.426C80.9104 111.067 80.7657 111.758 80.7609 112.456C80.756 113.155 80.8911 113.848 81.1581 114.493C81.6981 115.808 82.7321 116.86 84.0382 117.421C85.3443 117.983 86.8185 118.01 88.1446 117.498L129.158 101.555C129.391 101.466 129.604 101.332 129.785 101.159C129.965 100.987 130.109 100.78 130.208 100.551C130.308 100.322 130.36 100.075 130.362 99.8252C130.364 99.5755 130.317 99.3279 130.221 99.097L127.634 92.7431C127.442 92.2709 127.072 91.8932 126.604 91.6915C126.136 91.4897 125.608 91.4802 125.133 91.6649Z" fill="#029491"/>
<path d="M193.041 142.494C196.361 139.274 199.725 126.523 203.377 125.33V114.477C170.313 103.954 150.188 94.4949 150.188 94.4949V131.454C152.703 133.438 156.944 144.521 162.133 148.316C170.802 154.728 182.331 152.873 193.041 142.494Z" fill="#FF7761"/>
<path d="M214.317 73.9956C212.592 60.7127 211.888 51.5412 190.526 44.2959C167.698 36.562 147.529 46.4523 139.795 69.2804C137.121 77.1726 142.037 112.608 145.056 123.663C147.141 131.282 170.831 144.593 170.831 144.593C172.125 146.52 181.714 146.462 183.022 144.464C183.022 144.464 206.022 128.953 207.934 123.821C211.931 113.011 214.82 77.9344 214.317 73.9956Z" fill="#FFAE99"/>
<path d="M215.96 30.9982C215.96 30.9982 159.146 37.7883 132.827 54.4212C132.827 54.4212 183.38 108.738 215.96 30.9982Z" fill="#101C3A"/>
<path d="M173.95 109.661L172.987 107.691C172.987 107.691 178.924 104.644 177.674 101.941C173.922 93.6179 175.445 82.3332 175.517 81.8157L177.688 82.1175C177.688 82.2325 176.251 93.2585 179.686 101.007C181.799 105.751 174.353 109.546 173.95 109.661Z" fill="#101C3A"/>
<path d="M171.366 110.511C174.904 109.151 178.135 107.096 180.869 104.469C183.602 101.841 185.782 98.6938 187.281 95.2113C188.78 91.7288 189.567 87.9818 189.596 84.1905C189.625 80.3993 188.896 76.6405 187.452 73.1352C184.521 65.9949 178.911 60.286 171.823 57.231C164.735 54.176 156.732 54.0178 149.529 56.7904C145.99 58.1508 142.759 60.2052 140.026 62.8328C137.293 65.4603 135.113 68.6079 133.614 72.0904C132.115 75.5729 131.328 79.3199 131.299 83.1112C131.269 86.9024 131.998 90.6612 133.443 94.1665C136.377 101.304 141.987 107.011 149.074 110.065C156.161 113.12 164.162 113.28 171.366 110.511ZM151.24 60.9736C157.329 58.6285 164.094 58.7613 170.086 61.3435C176.078 63.9258 180.82 68.752 183.297 74.7884C184.524 77.7524 185.145 80.9319 185.123 84.1395C185.102 87.3472 184.439 90.5181 183.173 93.4655C181.907 96.4128 180.063 99.077 177.752 101.301C175.44 103.525 172.707 105.263 169.712 106.414C163.624 108.759 156.859 108.627 150.867 106.044C144.874 103.462 140.132 98.6359 137.655 92.5996C136.428 89.6374 135.806 86.4596 135.825 83.2533C135.845 80.0469 136.505 76.8769 137.769 73.9299C139.032 70.9828 140.872 68.3183 143.181 66.0932C145.489 63.8681 148.22 62.1274 151.211 60.9736H151.24Z" fill="#390D9F"/>
<path d="M148.089 78.84L146.853 77.0143C157.864 69.5966 166.058 76.3818 166.144 76.4537L164.707 78.1212C164.434 77.8912 157.677 72.3711 148.089 78.84Z" fill="#101C3A"/>
<path d="M202.385 79.372C202.14 79.0989 196.275 72.6443 185.824 77.6039L184.89 75.6201C196.879 69.8699 203.966 77.8482 204.038 77.9345L202.385 79.372Z" fill="#101C3A"/>
<path d="M172.354 120.816C168.919 120.866 165.495 120.416 162.19 119.479L162.88 117.395C165.966 118.242 169.155 118.654 172.354 118.617C178.104 118.617 188.986 115.195 189.101 115.167L189.763 117.251C189.303 117.395 178.42 120.816 172.354 120.816Z" fill="#101C3A"/>
<path d="M157.591 92.4103C160.425 92.4103 162.723 90.1126 162.723 87.2783C162.723 84.4439 160.425 82.1462 157.591 82.1462C154.757 82.1462 152.459 84.4439 152.459 87.2783C152.459 90.1126 154.757 92.4103 157.591 92.4103Z" fill="#101C3A"/>
<path d="M193.3 92.4103C196.134 92.4103 198.432 90.1126 198.432 87.2783C198.432 84.4439 196.134 82.1462 193.3 82.1462C190.466 82.1462 188.168 84.4439 188.168 87.2783C188.168 90.1126 190.466 92.4103 193.3 92.4103Z" fill="#101C3A"/>
<path opacity="0.5" d="M169.683 106.371C163.589 108.717 156.818 108.583 150.821 105.998C144.824 103.413 140.077 98.5833 137.597 92.5422C136.374 89.5762 135.756 86.3953 135.78 83.1869C135.804 79.9784 136.47 76.8073 137.739 73.8602C139.008 70.9131 140.853 68.2496 143.167 66.0266C145.48 63.8036 148.215 62.0661 151.211 60.9163C157.306 58.5709 164.076 58.7049 170.073 61.2896C176.07 63.8744 180.817 68.7044 183.297 74.7454C184.521 77.7114 185.139 80.8923 185.114 84.1008C185.09 87.3092 184.424 90.4804 183.155 93.4275C181.887 96.3746 180.041 99.0381 177.728 101.261C175.414 103.484 172.679 105.222 169.683 106.371Z" fill="#EBF1FD"/>
<path d="M112.958 92.8439C105.77 86.4756 101.573 96.5384 101.573 96.5384C94.8593 91.5789 91.1217 98.6804 91.1217 98.6804C88.9695 98.6391 86.8331 99.0556 84.854 99.9023C83.819 101.239 83.5602 107.924 89.4973 109.404C95.4343 110.885 96.0381 105.537 96.0381 105.537C98.7551 109.591 103.873 109.85 105.655 108.585C107.438 107.32 106.503 103.022 106.475 102.835C107.372 103.631 108.439 104.213 109.595 104.537C110.75 104.861 111.964 104.918 113.145 104.704C117.084 103.971 117.17 98.9535 117.184 98.7666C117.871 100.301 118.965 101.619 120.347 102.576C121.914 103.511 123.581 103.338 125.695 103.252C129.245 103.108 132.71 96.2365 124.257 90.5295C115.804 84.8225 112.958 92.8439 112.958 92.8439Z" fill="#FFAE99"/>
<path d="M106.33 102.562C106.099 101.328 105.609 100.157 104.893 99.1259C104.537 98.5967 104.117 98.1138 103.642 97.6884C103.177 97.2713 102.648 96.9315 102.075 96.6821C102.559 97.0515 103.011 97.4602 103.426 97.904C103.841 98.3533 104.221 98.8339 104.562 99.3416C104.901 99.8422 105.213 100.36 105.497 100.894C105.813 101.44 106.086 101.987 106.33 102.562Z" fill="#D17F80"/>
<path d="M95.9084 105.02C95.693 103.781 95.2017 102.607 94.4709 101.584C94.1153 101.059 93.7005 100.577 93.2346 100.146C92.764 99.7333 92.2301 99.3984 91.6533 99.1545C92.1382 99.5275 92.5947 99.9359 93.019 100.376C93.4294 100.826 93.8043 101.307 94.1403 101.814C94.4853 102.303 94.7872 102.835 95.089 103.367C95.3909 103.898 95.6641 104.445 95.9084 105.02Z" fill="#D17F80"/>
<path d="M117.168 98.7668C116.95 97.5335 116.459 96.3646 115.731 95.3454C115.384 94.8138 114.968 94.3304 114.495 93.9079C114.03 93.4908 113.501 93.151 112.928 92.9016C113.405 93.2836 113.856 93.6966 114.279 94.1379C114.689 94.5873 115.064 95.068 115.4 95.5754C115.747 96.0689 116.064 96.5826 116.349 97.1136C116.665 97.6599 116.895 98.163 117.168 98.7668Z" fill="#D17F80"/>
<path d="M400.436 337.945C391.12 348.171 379.764 356.329 367.1 361.895C348.309 369.981 327.275 371.207 307.672 365.359C303.662 364.178 299.734 362.738 295.913 361.046C285.015 356.244 274.992 349.661 266.256 341.568L266.055 341.381C259.381 335.248 253.377 328.425 248.143 321.025C247.324 319.89 246.547 318.74 245.757 317.561C244.219 315.289 242.767 312.961 241.444 310.603C206.742 251.98 213.771 170.974 257.329 124.039C282.989 96.3948 316.196 87.1082 347.348 95.0147C348.162 95.216 348.982 95.4316 349.806 95.6616H349.95C352.825 96.4666 355.614 97.4154 358.403 98.5367C363.561 100.56 368.539 103.017 373.281 105.883C388.369 115.255 401.208 127.834 410.887 142.727C425.369 164.829 434.25 190.125 436.763 216.43C437.007 218.572 437.194 220.742 437.324 222.884C440.17 265.507 427.606 308.691 400.436 337.945Z" fill="#101C3A"/>
<path d="M243.399 290.075C245.307 294.781 247.451 299.387 249.825 303.875C252.149 308.32 254.707 312.639 257.487 316.813C263.664 326.129 271.051 334.584 279.453 341.956L279.668 342.157C283.546 345.517 287.658 348.597 291.974 351.372C296.072 353.993 300.358 356.309 304.796 358.301C324.361 367.31 346.605 368.609 367.085 361.938C382.778 356.609 396.847 347.355 407.955 335.056C413.429 329.133 418.306 322.686 422.517 315.807C423.351 314.47 424.141 313.104 424.918 311.724C433.787 295.819 439.714 278.443 442.412 260.433C444.382 247.797 444.936 234.981 444.066 222.223C444.066 221.504 443.979 220.785 443.908 220.052C443.821 218.615 443.678 217.177 443.505 215.74C442.923 210.049 442.05 204.392 440.889 198.791C440.616 197.44 440.314 196.074 439.997 194.737C435.861 176.556 428.473 159.272 418.19 143.719C410.164 131.485 399.99 120.804 388.16 112.193C386.478 110.986 384.767 109.836 383.042 108.743C380.483 107.133 377.872 105.653 375.207 104.301C370.086 101.684 364.735 99.5426 359.222 97.9042C356.172 97.0133 353.077 96.2839 349.95 95.7191H349.863L347.362 95.331C319.431 91.1909 290.579 100.952 267.794 125.519C229.8 166.346 220.93 234.902 243.399 290.075Z" fill="#029491"/>
<path d="M268.973 304.407C302.166 354.046 359.84 361.003 397.935 320.062C436.03 279.121 439.897 205.706 406.704 156.182C373.511 106.659 315.78 99.5717 277.742 140.527C239.705 181.483 235.795 254.855 268.973 304.407Z" fill="#EBF1FD"/>
<path d="M280.458 292.044C308.116 333.373 356.231 339.21 387.929 305.097C419.627 270.984 422.89 209.802 395.232 168.53C367.573 127.259 319.459 121.365 287.761 155.492C256.063 189.619 252.8 250.715 280.458 292.044Z" fill="#029491"/>
<path d="M291.93 279.682C314.054 312.745 352.551 317.417 377.909 290.118C403.268 262.819 405.884 213.928 383.76 180.865C361.636 147.801 323.139 143.129 297.781 170.428C272.422 197.727 269.806 246.632 291.93 279.682Z" fill="#EBF1FD"/>
<path d="M303.402 267.333C320.005 292.13 348.871 295.638 367.89 275.153C386.909 254.668 388.878 217.982 372.203 193.213C355.527 168.444 326.776 164.893 307.801 185.364C288.825 205.835 286.813 242.535 303.402 267.333Z" fill="#029491"/>
<path d="M314.887 254.97C325.942 271.502 345.191 273.845 357.87 260.189C370.549 246.532 371.857 222.079 360.745 205.562C349.633 189.045 330.427 186.687 317.748 200.344C305.069 214 303.775 238.439 314.887 254.97Z" fill="#EBF1FD"/>
<path d="M326.36 242.622C331.894 250.888 341.511 252.052 347.923 245.224C354.334 238.396 354.909 226.176 349.36 217.911C343.812 209.645 334.209 208.48 327.869 215.309C321.53 222.137 320.84 234.356 326.36 242.622Z" fill="#029491"/>
<path d="M511.487 204.009L341.152 233.364C340.228 233.523 339.279 233.31 338.511 232.771C337.743 232.232 337.22 231.412 337.055 230.489C336.896 229.565 337.11 228.615 337.648 227.848C338.187 227.08 339.007 226.557 339.93 226.392L510.337 197.037L511.487 204.009Z" fill="#101C3A"/>
<path d="M464.709 205.676L498.29 176.595L543.874 168.76L523.001 198.316L552.557 219.189L506.973 227.038L465.6 210.88L464.709 205.676Z" fill="#101C3A"/>
<path d="M330.242 87.1224C338.723 79.1728 344.157 91.2194 344.157 91.2194C352.121 84.9948 356.865 93.4619 356.865 93.4619C359.471 93.3511 362.071 93.7869 364.498 94.7414C365.792 96.337 366.338 104.416 359.194 106.4C352.049 108.384 351.144 101.929 351.144 101.929C347.995 106.932 341.814 107.406 339.643 105.94C337.473 104.474 338.436 99.2409 338.464 99.0253C337.407 100.021 336.136 100.762 334.748 101.19C333.36 101.619 331.892 101.724 330.457 101.498C325.656 100.75 325.383 94.7557 325.368 94.4539C324.593 96.3389 323.309 97.9714 321.66 99.169C319.805 100.348 317.778 100.204 315.219 100.175C310.907 100.175 306.493 91.895 316.657 84.7217C326.82 77.5483 330.242 87.1224 330.242 87.1224Z" fill="#FFAE99"/>
<path d="M338.593 98.6806C338.802 97.179 339.347 95.7441 340.188 94.483C340.592 93.84 341.075 93.2507 341.626 92.7292C342.178 92.2117 342.809 91.7848 343.495 91.4641C342.922 91.9322 342.388 92.4467 341.899 93.0023C341.414 93.5473 340.972 94.1288 340.577 94.7417C340.173 95.3559 339.808 95.9944 339.484 96.6536C339.182 97.3005 338.866 97.9762 338.593 98.6806Z" fill="#D17F80"/>
<path d="M351.287 101.297C351.503 99.7967 352.048 98.3632 352.883 97.0989C353.285 96.4599 353.769 95.8753 354.32 95.3595C354.873 94.8421 355.503 94.4151 356.189 94.0945C355.616 94.5626 355.082 95.077 354.593 95.6327C354.104 96.1741 353.662 96.756 353.271 97.3721C352.871 97.9832 352.506 98.6167 352.178 99.2696C351.877 99.9309 351.56 100.607 351.287 101.297Z" fill="#D17F80"/>
<path d="M325.34 94.4538C325.549 92.9522 326.094 91.5173 326.935 90.2562C327.334 89.6099 327.818 89.0201 328.373 88.5023C328.925 87.9849 329.556 87.558 330.242 87.2373C329.669 87.7054 329.135 88.2198 328.646 88.7755C328.157 89.317 327.715 89.8988 327.324 90.5149C326.923 91.126 326.559 91.7596 326.231 92.4125C325.929 93.0737 325.613 93.7494 325.34 94.4538Z" fill="#D17F80"/>
</svg>
