<svg width="59" height="12" viewBox="0 0 59 12" fill="none" xmlns="http://www.w3.org/2000/svg">
<path d="M30.3742 5.82858C29.8869 5.82858 29.5359 5.99271 29.1797 6.1598V9.94418C29.5213 9.97854 29.7156 9.97854 30.0401 9.97854C31.2097 9.97854 31.3697 9.42756 31.3697 8.65957V6.85167C31.3697 6.28438 31.1866 5.82858 30.3742 5.82858ZM22.6085 5.62193C21.7971 5.62193 21.6126 6.07972 21.6126 6.64651V6.96463H23.6044V6.64651C23.6042 6.07947 23.419 5.62193 22.6085 5.62193ZM7.56516 9.56129C7.56516 10.0092 7.77077 10.2423 8.22525 10.2423C8.71288 10.2423 9.00113 10.0791 9.35712 9.91081V9.01378H8.29107C7.78663 9.01403 7.56516 9.10993 7.56516 9.56129ZM37.9286 5.82858C37.116 5.82858 36.8344 6.28438 36.8344 6.85118V8.92232C36.8344 9.49134 37.116 9.94764 37.9286 9.94764C38.7388 9.94764 39.0227 9.49084 39.0227 8.92232V6.85118C39.0225 6.28438 38.7388 5.82858 37.9286 5.82858ZM3.58248 11.8826H1.19432V5.94105H0V3.89313H1.19432V2.66389C1.19432 0.993429 1.86835 0 3.78234 0H5.37685V2.04791H4.38094C3.63533 2.04791 3.58585 2.33415 3.58585 2.86807L3.58248 3.89289H5.38838L5.17699 5.9408H3.58248V11.8826ZM11.747 11.8979H9.75611L9.67059 11.3803C8.76116 11.8979 7.94973 11.982 7.41454 11.982C5.95407 11.982 5.17723 10.9796 5.17723 9.59342C5.17723 7.95831 6.08379 7.37422 7.70616 7.37422H9.35736V7.02074C9.35736 6.18551 9.26416 5.9408 8.01507 5.9408H5.97233L6.17218 3.89289H8.40469C11.146 3.89289 11.747 4.78349 11.747 7.0373V11.8979ZM18.517 6.09133C17.2783 5.87282 16.9223 5.82487 16.3266 5.82487C15.2557 5.82487 14.9319 6.06785 14.9319 7.00196V8.76981C14.9319 9.70416 15.2557 9.94788 16.3266 9.94788C16.9223 9.94788 17.2783 9.89969 18.517 9.68043V11.6772C17.4315 11.9278 16.7248 11.9933 16.1277 11.9933C13.5625 11.9933 12.5437 10.6074 12.5437 8.60469V7.17004C12.5437 5.16638 13.5625 3.77745 16.1277 3.77745C16.7248 3.77745 17.432 3.84395 18.517 4.09434V6.09133ZM25.9926 8.60469H21.6124V8.76981C21.6124 9.70416 21.9362 9.94788 23.0065 9.94788C23.9693 9.94788 24.5564 9.89969 25.793 9.68043V11.6772C24.6006 11.9278 23.9794 11.9933 22.8086 11.9933C20.2437 11.9933 19.2237 10.6074 19.2237 8.60469V6.96439C19.2237 5.21285 19.9809 3.77745 22.6088 3.77745C25.2371 3.77745 25.9928 5.19579 25.9928 6.96439L25.9926 8.60469ZM33.7581 8.64226C33.7581 10.5777 33.22 11.9894 29.9596 11.9894C28.7831 11.9894 28.0915 11.8826 26.7918 11.6769V0.614744L29.1797 0.205656V4.07481C29.6954 3.87756 30.3639 3.7777 30.9719 3.7777C33.3605 3.7777 33.7583 4.87841 33.7583 6.64601V8.64226H33.7581ZM41.4136 8.68453C41.4136 10.354 40.7426 11.9736 37.9365 11.9736C35.1287 11.9736 34.4456 10.354 34.4456 8.68453V7.07265C34.4456 5.40268 35.1287 3.78289 37.9365 3.78289C40.7426 3.78289 41.4136 5.40268 41.4136 7.07265V8.68453ZM49.0625 8.68453C49.0625 10.354 48.3912 11.9736 45.586 11.9736C42.7782 11.9736 42.0945 10.354 42.0945 8.68453V7.07265C42.0945 5.40268 42.7782 3.78289 45.586 3.78289C48.3912 3.78289 49.0625 5.40268 49.0625 7.07265V8.68453ZM56.914 11.8826H54.3248L52.1358 8.12763V11.8826H49.7476V0.614744L52.1358 0.205656V7.45949L54.3248 3.89313H56.914L54.5237 7.78479L56.914 11.8826ZM45.5778 5.82858C44.7666 5.82858 44.4851 6.28438 44.4851 6.85118V8.92232C44.4851 9.49134 44.7666 9.94764 45.5778 9.94764C46.388 9.94764 46.6746 9.49084 46.6746 8.92232V6.85118C46.6746 6.28438 46.388 5.82858 45.5778 5.82858ZM58.2775 10.4816C58.6796 10.4816 59 10.8185 59 11.2392C59 11.6666 58.6796 12 58.2741 12C57.8717 12 57.5446 11.6663 57.5446 11.2392C57.5446 10.8185 57.8717 10.4816 58.2741 10.4816H58.2775ZM58.2736 10.5995C57.9501 10.5995 57.6849 10.8857 57.6849 11.2397C57.6849 11.5998 57.95 11.8831 58.2775 11.8831C58.6044 11.8865 58.8662 11.5998 58.8662 11.2429C58.8662 10.8862 58.6044 10.5995 58.2775 10.5995H58.2736ZM58.1362 11.6809H58.0058V10.835C58.0742 10.8249 58.1396 10.8153 58.2376 10.8153C58.3625 10.8153 58.4439 10.8417 58.4932 10.879C58.5422 10.9164 58.5679 10.9734 58.5679 11.0543C58.5679 11.1653 58.4965 11.2327 58.4084 11.2599V11.2666C58.4802 11.2802 58.5294 11.3467 58.5453 11.4713C58.565 11.603 58.5847 11.6537 58.5979 11.6809H58.4605C58.4408 11.6542 58.4206 11.5761 58.405 11.4656C58.3853 11.3573 58.3332 11.3168 58.2277 11.3168H58.1364V11.6809H58.1362ZM58.1362 11.2125H58.2313C58.3387 11.2125 58.4307 11.1719 58.4307 11.0676C58.4307 10.993 58.3781 10.9191 58.2313 10.9191C58.1886 10.9191 58.1585 10.9228 58.1362 10.9257V11.2125Z" fill="#26559A"/>
</svg>
