<svg width="60" height="20" viewBox="0 0 60 20" fill="none" xmlns="http://www.w3.org/2000/svg">
<path d="M25.4454 10.3005C25.4454 13.1165 23.2424 15.1916 20.5389 15.1916C17.8353 15.1916 15.6323 13.1165 15.6323 10.3005C15.6323 7.46465 17.8353 5.40942 20.5389 5.40942C23.2424 5.40942 25.4454 7.46465 25.4454 10.3005ZM23.2975 10.3005C23.2975 8.54078 22.0207 7.33675 20.5389 7.33675C19.057 7.33675 17.7802 8.54078 17.7802 10.3005C17.7802 12.0426 19.057 13.2643 20.5389 13.2643C22.0207 13.2643 23.2975 12.0404 23.2975 10.3005Z" fill="#EA4335"/>
<path d="M36.0303 10.3005C36.0303 13.1165 33.8274 15.1916 31.1238 15.1916C28.4203 15.1916 26.2173 13.1165 26.2173 10.3005C26.2173 7.46686 28.4203 5.40942 31.1238 5.40942C33.8274 5.40942 36.0303 7.46465 36.0303 10.3005ZM33.8825 10.3005C33.8825 8.54078 32.6057 7.33675 31.1238 7.33675C29.6419 7.33675 28.3651 8.54078 28.3651 10.3005C28.3651 12.0426 29.6419 13.2643 31.1238 13.2643C32.6057 13.2643 33.8825 12.0404 33.8825 10.3005Z" fill="#FBBC05"/>
<path d="M46.1743 5.70492V14.486C46.1743 18.098 44.0441 19.5733 41.5258 19.5733C39.1552 19.5733 37.7284 17.9878 37.1904 16.6911L39.0604 15.9127C39.3934 16.7088 40.2093 17.6482 41.5236 17.6482C43.1355 17.6482 44.1345 16.6536 44.1345 14.7814V14.078H44.0595C43.5788 14.6712 42.6526 15.1894 41.4839 15.1894C39.0383 15.1894 36.7979 13.0592 36.7979 10.3182C36.7979 7.55727 39.0383 5.40942 41.4839 5.40942C42.6504 5.40942 43.5766 5.92764 44.0595 6.50319H44.1345V5.70712H46.1743V5.70492ZM44.2867 10.3182C44.2867 8.59591 43.1378 7.33675 41.6757 7.33675C40.1938 7.33675 38.9523 8.59591 38.9523 10.3182C38.9523 12.0228 40.1938 13.2643 41.6757 13.2643C43.1378 13.2643 44.2867 12.0228 44.2867 10.3182Z" fill="#4285F4"/>
<path d="M49.5373 0.557861V14.8915H47.4424V0.557861H49.5373Z" fill="#34A853"/>
<path d="M57.7006 11.9103L59.3677 13.0217C58.8297 13.8178 57.533 15.1894 55.2926 15.1894C52.514 15.1894 50.439 13.0416 50.439 10.2983C50.439 7.38969 52.5317 5.40723 55.0522 5.40723C57.5904 5.40723 58.8319 7.42717 59.2376 8.51874L59.4604 9.07444L52.922 11.7824C53.4226 12.7637 54.201 13.2643 55.2926 13.2643C56.3863 13.2643 57.1449 12.7262 57.7006 11.9103ZM52.5692 10.1506L56.9398 8.33571C56.6995 7.72487 55.9762 7.29927 55.125 7.29927C54.0334 7.29927 52.514 8.26294 52.5692 10.1506Z" fill="#EA4335"/>
<path d="M7.7027 9.02802V6.95294H14.6953C14.7637 7.31459 14.799 7.74239 14.799 8.20548C14.799 9.76234 14.3734 11.6875 13.0018 13.0591C11.6676 14.4484 9.96301 15.1893 7.70491 15.1893C3.51947 15.1893 0 11.7801 0 7.59465C0 3.40921 3.51947 0 7.70491 0C10.0203 0 11.6698 0.908535 12.9091 2.09272L11.4449 3.55696C10.5562 2.7234 9.35218 2.07508 7.7027 2.07508C4.64632 2.07508 2.2559 4.53826 2.2559 7.59465C2.2559 10.651 4.64632 13.1142 7.7027 13.1142C9.68516 13.1142 10.8142 12.3181 11.5375 11.5948C12.1241 11.0083 12.51 10.1703 12.6622 9.02581L7.7027 9.02802Z" fill="#4285F4"/>
</svg>
