<svg width="56" height="17" viewBox="0 0 56 17" fill="none" xmlns="http://www.w3.org/2000/svg">
<path d="M53.5368 14.1223C54.6384 14.1223 55.4188 13.9234 56.0002 13.495V11.5518C55.4035 11.9649 54.6843 12.225 53.6745 12.225C51.9762 12.225 51.2723 10.9092 51.2723 8.82832C51.2723 6.64035 52.1292 5.52341 53.6898 5.52341C54.6078 5.52341 55.5106 5.84472 55.9849 6.15073V4.13106C55.48 3.85565 54.6078 3.65674 53.4144 3.65674C50.3696 3.65674 48.7936 5.84472 48.7936 8.90483C48.8089 12.2556 50.3543 14.1223 53.5368 14.1223ZM38.6494 13.2349V11.2917C37.9149 11.7966 36.6603 12.2403 35.5128 12.2403C33.7685 12.2403 33.1106 11.4141 33.0035 9.73106H38.7565V8.47641C38.7565 4.97259 37.2111 3.65674 34.8395 3.65674C31.9324 3.65674 30.5554 5.87532 30.5554 8.92013C30.5554 12.424 32.2843 14.1223 35.3139 14.1223C36.8286 14.1223 37.9456 13.7092 38.6494 13.2349ZM16.8155 3.84034V7.81849H13.633V3.84034H11.2461V13.9234H13.633V9.71576H16.8155V13.9234H19.2024V3.84034H16.8155ZM29.9587 12.0261H28.9029V3.84034H21.9565V4.69718C21.9565 7.16056 21.8035 10.3431 20.9619 12.0261H20.1969V16.2185H22.4002V13.9234H27.7401V16.2185H29.9434V12.0261H29.9587ZM46.2537 13.9234H48.9619L45.1368 8.49171L48.5029 3.84034H46.1007L42.7346 8.49171V3.84034H40.3477V13.9234H42.7346V8.96603L46.2537 13.9234ZM34.7783 5.52341C35.9565 5.52341 36.3237 6.50264 36.3237 7.77259V7.97149H33.0035C33.0647 6.36494 33.6461 5.52341 34.7783 5.52341ZM26.516 12.0261H23.1499C23.8078 10.5114 23.9915 7.75729 23.9915 6.01302V5.70701H26.516V12.0261Z" fill="black"/>
<path d="M9.25683 13.9235H6.82405V1.88197H5.73771C3.74864 1.88197 2.7082 2.8765 2.7082 4.36066C2.7082 6.04372 3.42732 6.82404 4.91148 7.81858L6.13552 8.64481L2.61639 13.9235H0L3.16721 9.21093C1.34645 7.91038 0.321312 6.64044 0.321312 4.49836C0.321312 1.82077 2.18798 0 5.72241 0H9.24153V13.9235H9.25683Z" fill="#FC3F1D"/>
</svg>
